<svg aria-hidden="true" style="position: absolute; width: 0; height: 0; overflow: hidden;" version="1.1" xmlns="http://www.w3.org/2000/svg" xmlns:xlink="http://www.w3.org/1999/xlink">
<defs>
<symbol id="icon-twitter" viewBox="0 0 40 32">
<path d="M35.651 7.975c0.024 0.351 0.024 0.7 0.024 1.051 0 10.675-8.124 22.975-22.973 22.975-4.576 0-8.827-1.325-12.4-3.625 0.649 0.075 1.273 0.1 1.949 0.1 0.012 0 0.026 0 0.040 0 3.783 0 7.263-1.299 10.018-3.475l-0.034 0.026c-3.518-0.066-6.482-2.369-7.533-5.543l-0.016-0.057c0.5 0.075 1 0.124 1.525 0.124 0.756-0.002 1.487-0.102 2.184-0.288l-0.060 0.014c-3.719-0.772-6.475-4.022-6.475-7.916 0-0.003 0-0.007 0-0.010v0.001-0.099c1.052 0.598 2.303 0.971 3.635 1.024l0.016 0.001c-2.183-1.467-3.6-3.927-3.6-6.719 0-0.002 0-0.005 0-0.007v0c0-1.5 0.4-2.875 1.1-4.075 4.001 4.897 9.919 8.098 16.593 8.448l0.057 0.002c-0.124-0.555-0.196-1.193-0.2-1.848v-0.003c0-4.449 3.6-8.075 8.075-8.075 2.325 0 4.425 0.975 5.9 2.551 1.932-0.38 3.65-1.057 5.197-1.991l-0.071 0.040c-0.625 1.898-1.88 3.445-3.513 4.429l-0.036 0.020c1.723-0.2 3.294-0.641 4.752-1.29l-0.103 0.041c-1.126 1.626-2.467 3.007-4.002 4.141l-0.047 0.033z"></path>
</symbol>
<symbol id="icon-facebook" viewBox="0 0 19 32">
<path d="M16.78 18l0.888-5.791h-5.557v-3.759c0-1.584 0.777-3.129 3.267-3.129h2.525v-4.931s-2.293-0.391-4.485-0.391c-4.576 0-7.567 2.773-7.567 7.795v4.413h-5.087v5.792h5.087v14h6.26v-14h4.669z"></path>
</symbol>
<symbol id="icon-instagram" viewBox="0 0 35 32">
<path d="M17.337 7.796c-0.004 0-0.008 0-0.012 0-4.524 0-8.192 3.668-8.192 8.192 0 0.004 0 0.008 0 0.013v-0.001c0 0.004 0 0.008 0 0.012 0 4.524 3.668 8.192 8.192 8.192 0.004 0 0.008 0 0.013 0h-0.001c0.004 0 0.008 0 0.012 0 4.524 0 8.192-3.668 8.192-8.192 0-0.004 0-0.008 0-0.013v0.001c0-0.004 0-0.008 0-0.012 0-4.524-3.668-8.192-8.192-8.192-0.004 0-0.008 0-0.013 0h0.001zM17.337 21.333c-2.935 0-5.333-2.392-5.333-5.333s2.391-5.333 5.333-5.333c2.941 0 5.333 2.392 5.333 5.333s-2.399 5.333-5.333 5.333zM27.791 7.46c0 1.064-0.856 1.913-1.913 1.913s-1.913-0.857-1.913-1.913 0.857-1.913 1.913-1.913c1.057 0 1.913 0.857 1.913 1.913v0zM33.225 9.403c-0.121-2.564-0.707-4.835-2.587-6.705-1.868-1.871-4.139-2.456-6.703-2.585-2.641-0.149-10.56-0.149-13.203 0-2.556 0.121-4.827 0.707-6.704 2.579-1.88 1.869-2.459 4.141-2.589 6.704-0.149 2.643-0.149 10.56 0 13.203 0.123 2.564 0.708 4.835 2.587 6.705 1.877 1.871 4.141 2.456 6.704 2.585 2.643 0.149 10.56 0.149 13.203 0 2.564-0.121 4.835-0.707 6.705-2.585 1.871-1.871 2.456-4.141 2.585-6.705 0.149-2.641 0.149-10.553 0-13.195zM29.812 25.432c-0.561 1.396-1.646 2.482-3.006 3.030l-0.036 0.013c-2.107 0.835-7.104 0.643-9.432 0.643s-7.333 0.185-9.433-0.643c-1.395-0.561-2.48-1.647-3.027-3.006l-0.013-0.036c-0.836-2.107-0.644-7.104-0.644-9.432s-0.187-7.333 0.643-9.432c0.561-1.396 1.646-2.481 3.005-3.030l0.036-0.013c2.107-0.835 7.107-0.643 9.433-0.643 2.328 0 7.333-0.185 9.432 0.643 1.396 0.561 2.482 1.646 3.030 3.006l0.013 0.036c0.835 2.107 0.643 7.104 0.643 9.432s0.192 7.333-0.643 9.432z"></path>
</symbol>
<symbol id="icon-linkedin" viewBox="0 0 32 32">
<path d="M7.163 32h-6.635v-21.365h6.635v21.365zM3.843 7.72c-2.123 0-3.843-1.755-3.843-3.876-0-0.021-0.001-0.046-0.001-0.072 0-2.122 1.72-3.843 3.843-3.843s3.843 1.72 3.843 3.843c0 0.025-0 0.050-0.001 0.075l0-0.004c0 2.12-1.72 3.879-3.841 3.879zM31.993 32h-6.62v-10.4c0-2.48-0.049-5.657-3.449-5.657-3.449 0-3.977 2.693-3.977 5.479v10.579h-6.627v-21.365h6.361v2.915h0.093c0.885-1.679 3.049-3.449 6.277-3.449 6.715 0 7.948 4.421 7.948 10.164v11.736h-0.007z"></path>
</symbol>
<symbol id="icon-search" viewBox="0 0 36 32">
<path d="M27.788 22.144l7.554 7.12c0.149 0.154 0.241 0.363 0.241 0.595 0 0.25-0.107 0.475-0.278 0.631l-0.001 0.001-1.32 1.246c-0.174 0.164-0.409 0.264-0.667 0.264-0.002 0-0.004 0-0.005 0h0c-0.001 0-0.002 0-0.003 0-0.258 0-0.493-0.1-0.667-0.264l0.001 0-7.554-7.12c-0.205-0.193-0.391-0.403-0.557-0.627l-0.009-0.013-1.418-1.78c-2.261 1.701-5.116 2.724-8.211 2.724-0.015 0-0.029-0-0.044-0h0.002c-6.18 0.020-11.55-3.998-12.932-9.676-1.38-5.676 1.596-11.5 7.168-14.018 5.572-2.52 12.252-1.064 16.086 3.506 3.834 4.568 3.8 11.030-0.086 15.56l1.888 1.228c0.296 0.178 0.568 0.388 0.812 0.624zM5.41 12.46c0 4.916 4.228 8.9 9.442 8.9 0.014 0 0.030 0 0.046 0 2.565 0 4.898-0.991 6.638-2.611l-0.006 0.005c1.693-1.574 2.752-3.809 2.766-6.292v-0.002c0-4.914-4.228-8.9-9.444-8.9-5.214 0-9.44 3.986-9.44 8.9z"></path>
</symbol>
<symbol id="icon-cursor" viewBox="0 0 34 32">
<path d="M1.94 1.193c1.37-0.903 3.33-0.478 4.254 0.923l3.815 5.788c0.364-1.599 2.184-2.965 4.354-2.345 0.777-1.701 2.993-2.15 4.243-1.427 2.505-2.399 4.969-1.451 6.905 1.486 0.105 0.16 0.497 0.777 0.601 0.936 2.377 3.586 1.137 5.645 2.505 8.638 0.341 0.747 0.085 1.63-0.6 2.081l-9.946 6.554c-0.516 0.345-1.151 0.55-1.834 0.55-0.667 0-1.288-0.196-1.809-0.533l0.013 0.008c-1.857-1.178-6.489-3.659-8.593-3.281-1.353 0.243-2.503-0.128-3.215-1.208-1.308-1.984-0.172-4.69 2.194-5.115 0.484-0.088 1.040-0.138 1.608-0.138 0.133 0 0.265 0.003 0.397 0.008l-0.019-0.001-5.703-8.654c-0.896-1.359-0.521-3.383 0.83-4.273zM17.857 25.303l11.132-7.336c0.258-0.172 0.576-0.275 0.917-0.275 0.579 0 1.089 0.295 1.388 0.743l0.004 0.006 1.833 2.784c0.507 0.768 0.295 1.801-0.474 2.309l-11.134 7.336c-0.258 0.172-0.576 0.275-0.917 0.275-0.579 0-1.089-0.295-1.388-0.743l-0.004-0.006-1.833-2.784c-0.172-0.258-0.275-0.576-0.275-0.917 0-0.579 0.295-1.089 0.743-1.388l0.006-0.004zM28.668 20.506c-0.379 0.252-0.625 0.677-0.625 1.16 0 0.767 0.622 1.389 1.389 1.389 0.285 0 0.549-0.086 0.77-0.232l-0.005 0.003c0.379-0.252 0.625-0.677 0.625-1.16 0-0.767-0.622-1.389-1.389-1.389-0.285 0-0.549 0.086-0.77 0.232l0.005-0.003z"></path>
</symbol>
<symbol id="icon-arrow-right" viewBox="0 0 32 32">
<path d="M19.414 27.414l10-10c0.781-0.781 0.781-2.047 0-2.828l-10-10c-0.781-0.781-2.047-0.781-2.828 0s-0.781 2.047 0 2.828l6.586 6.586h-19.172c-1.105 0-2 0.895-2 2s0.895 2 2 2h19.172l-6.586 6.586c-0.39 0.39-0.586 0.902-0.586 1.414s0.195 1.024 0.586 1.414c0.781 0.781 2.047 0.781 2.828 0z"></path>
</symbol>
</defs>
</svg>
